<svg width="245" height="151" viewBox="0 0 245 151" fill="none" xmlns="http://www.w3.org/2000/svg">
<g filter="url(#filter0_d)">
<rect x="10" y="6" width="225" height="131" fill="#EEEEEE"/>
</g>
<path d="M69.7832 100.968V97.176C70.1885 97.1227 70.5032 97.016 70.7272 96.856C70.9619 96.696 71.1752 96.3707 71.3672 95.88C71.5592 95.3893 71.7085 94.6907 71.8152 93.784L72.4392 88.328H80.0232V97H80.9832V100.968H78.7112V99H72.0552V100.968H69.7832ZM74.0712 93.944C73.9219 95.32 73.4899 96.3387 72.7752 97H77.7352V90.328H74.4872L74.0712 93.944ZM88.8258 98.024C88.0791 98.8027 87.0871 99.192 85.8498 99.192C84.6125 99.192 83.6205 98.8027 82.8738 98.024C82.1378 97.2347 81.7698 96.2693 81.7698 95.128C81.7698 93.9867 82.1378 93.0267 82.8738 92.248C83.6205 91.4693 84.6125 91.08 85.8498 91.08C87.0871 91.08 88.0791 91.4693 88.8258 92.248C89.5725 93.0267 89.9458 93.9867 89.9458 95.128C89.9458 96.2693 89.5725 97.2347 88.8258 98.024ZM84.4098 96.744C84.7618 97.1707 85.2418 97.384 85.8498 97.384C86.4578 97.384 86.9378 97.1707 87.2898 96.744C87.6525 96.3067 87.8338 95.768 87.8338 95.128C87.8338 94.4987 87.6525 93.9707 87.2898 93.544C86.9378 93.1067 86.4578 92.888 85.8498 92.888C85.2418 92.888 84.7618 93.1067 84.4098 93.544C84.0578 93.9707 83.8818 94.4987 83.8818 95.128C83.8818 95.768 84.0578 96.3067 84.4098 96.744ZM97.4213 91.272V93.048H93.4853V99H91.4533V91.272H97.4213ZM105.279 98.024C104.532 98.8027 103.54 99.192 102.303 99.192C101.066 99.192 100.074 98.8027 99.3269 98.024C98.5909 97.2347 98.2229 96.2693 98.2229 95.128C98.2229 93.9867 98.5909 93.0267 99.3269 92.248C100.074 91.4693 101.066 91.08 102.303 91.08C103.54 91.08 104.532 91.4693 105.279 92.248C106.026 93.0267 106.399 93.9867 106.399 95.128C106.399 96.2693 106.026 97.2347 105.279 98.024ZM100.863 96.744C101.215 97.1707 101.695 97.384 102.303 97.384C102.911 97.384 103.391 97.1707 103.743 96.744C104.106 96.3067 104.287 95.768 104.287 95.128C104.287 94.4987 104.106 93.9707 103.743 93.544C103.391 93.1067 102.911 92.888 102.303 92.888C101.695 92.888 101.215 93.1067 100.863 93.544C100.511 93.9707 100.335 94.4987 100.335 95.128C100.335 95.768 100.511 96.3067 100.863 96.744ZM112.946 99H107.906V91.272H112.802C113.549 91.272 114.13 91.464 114.546 91.848C114.962 92.232 115.17 92.7013 115.17 93.256C115.17 93.704 115.048 94.0827 114.802 94.392C114.557 94.7013 114.242 94.9093 113.858 95.016C114.285 95.112 114.637 95.336 114.914 95.688C115.192 96.04 115.33 96.4453 115.33 96.904C115.33 97.512 115.117 98.0133 114.69 98.408C114.274 98.8027 113.693 99 112.946 99ZM112.45 97.336C112.696 97.336 112.888 97.272 113.026 97.144C113.176 97.016 113.25 96.84 113.25 96.616C113.25 96.4133 113.176 96.2427 113.026 96.104C112.888 95.9653 112.696 95.896 112.45 95.896H109.938V97.336H112.45ZM112.386 94.232C112.6 94.232 112.77 94.1733 112.898 94.056C113.037 93.928 113.106 93.7733 113.106 93.592C113.106 93.4 113.042 93.2453 112.914 93.128C112.786 93 112.61 92.936 112.386 92.936H109.938V94.232H112.386ZM123.841 98.024C123.095 98.8027 122.103 99.192 120.865 99.192C119.628 99.192 118.636 98.8027 117.889 98.024C117.153 97.2347 116.785 96.2693 116.785 95.128C116.785 93.9867 117.153 93.0267 117.889 92.248C118.636 91.4693 119.628 91.08 120.865 91.08C122.103 91.08 123.095 91.4693 123.841 92.248C124.588 93.0267 124.961 93.9867 124.961 95.128C124.961 96.2693 124.588 97.2347 123.841 98.024ZM119.425 96.744C119.777 97.1707 120.257 97.384 120.865 97.384C121.473 97.384 121.953 97.1707 122.305 96.744C122.668 96.3067 122.849 95.768 122.849 95.128C122.849 94.4987 122.668 93.9707 122.305 93.544C121.953 93.1067 121.473 92.888 120.865 92.888C120.257 92.888 119.777 93.1067 119.425 93.544C119.073 93.9707 118.897 94.4987 118.897 95.128C118.897 95.768 119.073 96.3067 119.425 96.744ZM130.885 99.192C129.914 99.192 129.12 98.7973 128.501 98.008V101.944H126.469V91.272H128.501V92.248C129.109 91.4693 129.904 91.08 130.885 91.08C131.898 91.08 132.72 91.4427 133.349 92.168C133.989 92.8827 134.309 93.8693 134.309 95.128C134.309 96.3867 133.989 97.3787 133.349 98.104C132.72 98.8293 131.898 99.192 130.885 99.192ZM130.245 97.384C130.832 97.384 131.301 97.176 131.653 96.76C132.016 96.344 132.197 95.8 132.197 95.128C132.197 94.4667 132.016 93.928 131.653 93.512C131.301 93.096 130.832 92.888 130.245 92.888C129.914 92.888 129.584 92.9733 129.253 93.144C128.922 93.3147 128.672 93.5227 128.501 93.768V96.504C128.672 96.7493 128.922 96.9573 129.253 97.128C129.594 97.2987 129.925 97.384 130.245 97.384ZM143.491 99.192C142.349 99.192 141.421 98.808 140.707 98.04C139.992 97.2613 139.635 96.2907 139.635 95.128C139.635 93.9653 139.992 93 140.707 92.232C141.421 91.464 142.349 91.08 143.491 91.08C144.685 91.08 145.629 91.528 146.323 92.424L145.523 93.16C145.032 92.488 144.376 92.152 143.555 92.152C142.744 92.152 142.093 92.4293 141.603 92.984C141.123 93.5387 140.883 94.2533 140.883 95.128C140.883 96.0027 141.123 96.7227 141.603 97.288C142.093 97.8427 142.744 98.12 143.555 98.12C144.365 98.12 145.021 97.784 145.523 97.112L146.323 97.848C145.629 98.744 144.685 99.192 143.491 99.192ZM157.042 99.192C155.474 99.192 154.199 98.6693 153.218 97.624C152.236 96.5787 151.746 95.2613 151.746 93.672C151.746 92.0827 152.236 90.7653 153.218 89.72C154.199 88.6747 155.474 88.152 157.042 88.152C158.599 88.152 159.868 88.6747 160.85 89.72C161.842 90.7653 162.338 92.0827 162.338 93.672C162.338 95.2613 161.842 96.5787 160.85 97.624C159.868 98.6693 158.599 99.192 157.042 99.192ZM157.042 98.008C158.215 98.008 159.159 97.6027 159.874 96.792C160.599 95.9707 160.962 94.9307 160.962 93.672C160.962 92.4027 160.599 91.3627 159.874 90.552C159.159 89.7413 158.215 89.336 157.042 89.336C155.858 89.336 154.908 89.7413 154.194 90.552C153.479 91.3627 153.122 92.4027 153.122 93.672C153.122 94.9307 153.479 95.9707 154.194 96.792C154.908 97.6027 155.858 98.008 157.042 98.008ZM169.276 99.192C167.708 99.192 166.433 98.6693 165.452 97.624C164.471 96.5787 163.98 95.2613 163.98 93.672C163.98 92.0827 164.471 90.7653 165.452 89.72C166.433 88.6747 167.708 88.152 169.276 88.152C170.833 88.152 172.103 88.6747 173.084 89.72C174.076 90.7653 174.572 92.0827 174.572 93.672C174.572 95.2613 174.076 96.5787 173.084 97.624C172.103 98.6693 170.833 99.192 169.276 99.192ZM169.276 98.008C170.449 98.008 171.393 97.6027 172.108 96.792C172.833 95.9707 173.196 94.9307 173.196 93.672C173.196 92.4027 172.833 91.3627 172.108 90.552C171.393 89.7413 170.449 89.336 169.276 89.336C168.092 89.336 167.143 89.7413 166.428 90.552C165.713 91.3627 165.356 92.4027 165.356 93.672C165.356 94.9307 165.713 95.9707 166.428 96.792C167.143 97.6027 168.092 98.008 169.276 98.008ZM181.51 99.192C179.942 99.192 178.668 98.6693 177.686 97.624C176.705 96.5787 176.214 95.2613 176.214 93.672C176.214 92.0827 176.705 90.7653 177.686 89.72C178.668 88.6747 179.942 88.152 181.51 88.152C183.068 88.152 184.337 88.6747 185.318 89.72C186.31 90.7653 186.806 92.0827 186.806 93.672C186.806 95.2613 186.31 96.5787 185.318 97.624C184.337 98.6693 183.068 99.192 181.51 99.192ZM181.51 98.008C182.684 98.008 183.628 97.6027 184.342 96.792C185.068 95.9707 185.43 94.9307 185.43 93.672C185.43 92.4027 185.068 91.3627 184.342 90.552C183.628 89.7413 182.684 89.336 181.51 89.336C180.326 89.336 179.377 89.7413 178.662 90.552C177.948 91.3627 177.59 92.4027 177.59 93.672C177.59 94.9307 177.948 95.9707 178.662 96.792C179.377 97.6027 180.326 98.008 181.51 98.008ZM47.4385 108.384C47.4385 108.853 47.3158 109.307 47.0705 109.744C46.8252 110.171 46.5158 110.523 46.1425 110.8L45.5505 110.304C45.8065 110.133 46.0305 109.909 46.2225 109.632C46.4252 109.344 46.5425 109.072 46.5745 108.816C46.5318 108.837 46.4625 108.848 46.3665 108.848C46.1425 108.848 45.9558 108.773 45.8065 108.624C45.6572 108.464 45.5825 108.267 45.5825 108.032C45.5825 107.797 45.6625 107.595 45.8225 107.424C45.9932 107.253 46.1958 107.168 46.4305 107.168C46.7078 107.168 46.9425 107.28 47.1345 107.504C47.3372 107.717 47.4385 108.011 47.4385 108.384ZM44.8785 108.384C44.8785 108.853 44.7558 109.307 44.5105 109.744C44.2652 110.171 43.9505 110.523 43.5665 110.8L42.9745 110.304C43.2305 110.133 43.4598 109.909 43.6625 109.632C43.8652 109.344 43.9825 109.072 44.0145 108.816C43.9718 108.837 43.8972 108.848 43.7905 108.848C43.5665 108.848 43.3798 108.773 43.2305 108.624C43.0918 108.464 43.0225 108.267 43.0225 108.032C43.0225 107.797 43.1025 107.595 43.2625 107.424C43.4332 107.253 43.6358 107.168 43.8705 107.168C44.1478 107.168 44.3825 107.28 44.5745 107.504C44.7772 107.717 44.8785 108.011 44.8785 108.384ZM54.4089 118H49.5449V107.328H54.2969C55.2142 107.328 55.9395 107.579 56.4729 108.08C57.0169 108.581 57.2889 109.237 57.2889 110.048C57.2889 110.688 57.1075 111.232 56.7449 111.68C56.3822 112.117 55.9395 112.389 55.4169 112.496C55.9822 112.581 56.4675 112.88 56.8729 113.392C57.2889 113.904 57.4969 114.48 57.4969 115.12C57.4969 115.984 57.2195 116.683 56.6649 117.216C56.1209 117.739 55.3689 118 54.4089 118ZM54.0729 111.952C54.6595 111.952 55.1129 111.792 55.4329 111.472C55.7529 111.152 55.9129 110.741 55.9129 110.24C55.9129 109.739 55.7475 109.328 55.4169 109.008C55.0969 108.677 54.6489 108.512 54.0729 108.512H50.8729V111.952H54.0729ZM54.1369 116.816C54.7555 116.816 55.2409 116.651 55.5929 116.32C55.9449 115.989 56.1209 115.541 56.1209 114.976C56.1209 114.453 55.9449 114.016 55.5929 113.664C55.2515 113.312 54.7662 113.136 54.1369 113.136H50.8729V116.816H54.1369ZM65.7034 117.024C65.01 117.803 64.0874 118.192 62.9354 118.192C61.7834 118.192 60.8554 117.803 60.1514 117.024C59.458 116.245 59.1114 115.28 59.1114 114.128C59.1114 112.976 59.458 112.016 60.1514 111.248C60.8554 110.469 61.7834 110.08 62.9354 110.08C64.0874 110.08 65.01 110.469 65.7034 111.248C66.4074 112.016 66.7594 112.976 66.7594 114.128C66.7594 115.28 66.4074 116.245 65.7034 117.024ZM61.0474 116.256C61.5167 116.832 62.146 117.12 62.9354 117.12C63.7247 117.12 64.3487 116.832 64.8074 116.256C65.266 115.669 65.4954 114.96 65.4954 114.128C65.4954 113.296 65.266 112.592 64.8074 112.016C64.3487 111.44 63.7247 111.152 62.9354 111.152C62.146 111.152 61.5167 111.445 61.0474 112.032C60.5887 112.608 60.3594 113.307 60.3594 114.128C60.3594 114.96 60.5887 115.669 61.0474 116.256ZM72.5236 118.192C71.4356 118.192 70.5663 117.739 69.9156 116.832V120.944H68.7156V110.272H69.9156V111.424C70.2036 111.019 70.577 110.693 71.0356 110.448C71.4943 110.203 71.9903 110.08 72.5236 110.08C73.5476 110.08 74.3743 110.448 75.0036 111.184C75.6436 111.909 75.9636 112.891 75.9636 114.128C75.9636 115.365 75.6436 116.352 75.0036 117.088C74.3743 117.824 73.5476 118.192 72.5236 118.192ZM72.2196 117.12C72.977 117.12 73.5796 116.843 74.0276 116.288C74.4756 115.723 74.6996 115.003 74.6996 114.128C74.6996 113.253 74.4756 112.539 74.0276 111.984C73.5796 111.429 72.977 111.152 72.2196 111.152C71.761 111.152 71.313 111.275 70.8756 111.52C70.449 111.755 70.129 112.043 69.9156 112.384V115.872C70.129 116.224 70.449 116.523 70.8756 116.768C71.313 117.003 71.761 117.12 72.2196 117.12ZM84.0159 117.024C83.3225 117.803 82.3999 118.192 81.2479 118.192C80.0959 118.192 79.1679 117.803 78.4639 117.024C77.7705 116.245 77.4239 115.28 77.4239 114.128C77.4239 112.976 77.7705 112.016 78.4639 111.248C79.1679 110.469 80.0959 110.08 81.2479 110.08C82.3999 110.08 83.3225 110.469 84.0159 111.248C84.7199 112.016 85.0719 112.976 85.0719 114.128C85.0719 115.28 84.7199 116.245 84.0159 117.024ZM79.3599 116.256C79.8292 116.832 80.4585 117.12 81.2479 117.12C82.0372 117.12 82.6612 116.832 83.1199 116.256C83.5785 115.669 83.8079 114.96 83.8079 114.128C83.8079 113.296 83.5785 112.592 83.1199 112.016C82.6612 111.44 82.0372 111.152 81.2479 111.152C80.4585 111.152 79.8292 111.445 79.3599 112.032C78.9012 112.608 78.6719 113.307 78.6719 114.128C78.6719 114.96 78.9012 115.669 79.3599 116.256ZM88.2281 118H87.0281V110.272H88.2281V113.488H92.2601V110.272H93.4601V118H92.2601V114.544H88.2281V118ZM99.3443 118.192C98.1923 118.192 97.2483 117.819 96.5123 117.072C95.7763 116.315 95.4083 115.333 95.4083 114.128C95.4083 112.997 95.7709 112.043 96.4963 111.264C97.2216 110.475 98.1283 110.08 99.2163 110.08C100.358 110.08 101.259 110.475 101.92 111.264C102.592 112.043 102.928 113.029 102.928 114.224V114.528H96.6723C96.7256 115.285 97.0029 115.92 97.5043 116.432C98.0056 116.944 98.6563 117.2 99.4563 117.2C100.416 117.2 101.211 116.875 101.84 116.224L102.416 117.008C101.627 117.797 100.603 118.192 99.3443 118.192ZM101.744 113.648C101.734 112.987 101.51 112.395 101.072 111.872C100.635 111.339 100.011 111.072 99.2003 111.072C98.4323 111.072 97.8243 111.333 97.3763 111.856C96.9389 112.379 96.7043 112.976 96.6723 113.648H101.744ZM105.432 118H103.896L107.336 113.776L103.912 110.272H105.432L108.76 113.68V110.272H109.96V113.664L113.288 110.272H114.808L111.368 113.776L114.824 118H113.288L110.504 114.528L109.96 115.072V118H108.76V115.072L108.216 114.528L105.432 118ZM119.608 118.192C118.467 118.192 117.539 117.808 116.824 117.04C116.109 116.261 115.752 115.291 115.752 114.128C115.752 112.965 116.109 112 116.824 111.232C117.539 110.464 118.467 110.08 119.608 110.08C120.803 110.08 121.747 110.528 122.44 111.424L121.64 112.16C121.149 111.488 120.493 111.152 119.672 111.152C118.861 111.152 118.211 111.429 117.72 111.984C117.24 112.539 117 113.253 117 114.128C117 115.003 117.24 115.723 117.72 116.288C118.211 116.843 118.861 117.12 119.672 117.12C120.483 117.12 121.139 116.784 121.64 116.112L122.44 116.848C121.747 117.744 120.803 118.192 119.608 118.192ZM130.922 118H129.386L126.602 114.528L125.322 115.792V118H124.122V110.272H125.322V114.384L129.386 110.272H130.906L127.482 113.776L130.922 118ZM133.493 118H132.341V110.272H133.541V116.176L137.589 110.272H138.773V118H137.573V111.984L133.493 118ZM144.657 118.192C143.505 118.192 142.561 117.819 141.825 117.072C141.089 116.315 140.721 115.333 140.721 114.128C140.721 112.997 141.083 112.043 141.809 111.264C142.534 110.475 143.441 110.08 144.529 110.08C145.67 110.08 146.571 110.475 147.233 111.264C147.905 112.043 148.241 113.029 148.241 114.224V114.528H141.985C142.038 115.285 142.315 115.92 142.817 116.432C143.318 116.944 143.969 117.2 144.769 117.2C145.729 117.2 146.523 116.875 147.153 116.224L147.729 117.008C146.939 117.797 145.915 118.192 144.657 118.192ZM147.057 113.648C147.046 112.987 146.822 112.395 146.385 111.872C145.947 111.339 145.323 111.072 144.513 111.072C143.745 111.072 143.137 111.333 142.689 111.856C142.251 112.379 142.017 112.976 141.985 113.648H147.057ZM160.341 118H159.141V117.12C158.491 117.835 157.637 118.192 156.581 118.192C155.867 118.192 155.237 117.963 154.693 117.504C154.149 117.045 153.877 116.421 153.877 115.632C153.877 114.821 154.144 114.197 154.677 113.76C155.221 113.312 155.856 113.088 156.581 113.088C157.68 113.088 158.533 113.44 159.141 114.144V112.752C159.141 112.24 158.96 111.84 158.597 111.552C158.235 111.264 157.765 111.12 157.189 111.12C156.283 111.12 155.493 111.477 154.821 112.192L154.261 111.36C155.083 110.507 156.112 110.08 157.349 110.08C158.235 110.08 158.955 110.293 159.509 110.72C160.064 111.147 160.341 111.803 160.341 112.688V118ZM157.013 117.328C157.973 117.328 158.683 117.008 159.141 116.368V114.912C158.683 114.272 157.973 113.952 157.013 113.952C156.459 113.952 156 114.112 155.637 114.432C155.285 114.741 155.109 115.147 155.109 115.648C155.109 116.139 155.285 116.544 155.637 116.864C156 117.173 156.459 117.328 157.013 117.328ZM161.835 118.192V117.2C162.198 117.2 162.496 116.96 162.731 116.48C162.966 116 163.158 115.2 163.307 114.08L163.803 110.272H169.179V118H167.979V111.328H164.859L164.507 114.224C164.336 115.643 164.038 116.661 163.611 117.28C163.184 117.888 162.592 118.192 161.835 118.192ZM179.463 118H178.263V111.936L175.751 118H175.303L172.775 111.936V118H171.575V110.272H173.159L175.527 116L177.863 110.272H179.463V118ZM187.888 118H186.688V117.12C186.038 117.835 185.184 118.192 184.128 118.192C183.414 118.192 182.784 117.963 182.24 117.504C181.696 117.045 181.424 116.421 181.424 115.632C181.424 114.821 181.691 114.197 182.224 113.76C182.768 113.312 183.403 113.088 184.128 113.088C185.227 113.088 186.08 113.44 186.688 114.144V112.752C186.688 112.24 186.507 111.84 186.144 111.552C185.782 111.264 185.312 111.12 184.736 111.12C183.83 111.12 183.04 111.477 182.368 112.192L181.808 111.36C182.63 110.507 183.659 110.08 184.896 110.08C185.782 110.08 186.502 110.293 187.056 110.72C187.611 111.147 187.888 111.803 187.888 112.688V118ZM184.56 117.328C185.52 117.328 186.23 117.008 186.688 116.368V114.912C186.23 114.272 185.52 113.952 184.56 113.952C184.006 113.952 183.547 114.112 183.184 114.432C182.832 114.741 182.656 115.147 182.656 115.648C182.656 116.139 182.832 116.544 183.184 116.864C183.547 117.173 184.006 117.328 184.56 117.328ZM193.03 118.192C191.547 118.192 190.384 117.771 189.542 116.928L190.134 116.16C190.859 116.853 191.824 117.2 193.03 117.2C193.723 117.2 194.272 117.077 194.678 116.832C195.094 116.587 195.302 116.261 195.302 115.856C195.302 115.003 194.491 114.576 192.87 114.576H191.142V113.6H192.87C193.542 113.6 194.091 113.493 194.518 113.28C194.944 113.056 195.158 112.731 195.158 112.304C195.158 111.941 194.944 111.648 194.518 111.424C194.091 111.189 193.552 111.072 192.902 111.072C191.824 111.072 190.96 111.403 190.31 112.064L189.686 111.328C190.486 110.507 191.542 110.096 192.854 110.096C193.91 110.085 194.763 110.267 195.414 110.64C196.075 111.003 196.406 111.509 196.406 112.16C196.406 112.693 196.187 113.125 195.75 113.456C195.323 113.787 194.848 113.984 194.326 114.048C194.87 114.091 195.376 114.272 195.846 114.592C196.326 114.912 196.566 115.36 196.566 115.936C196.566 116.597 196.246 117.141 195.606 117.568C194.976 117.984 194.118 118.192 193.03 118.192ZM198.513 110.272H199.713V113.264H202.609C203.377 113.264 203.974 113.493 204.401 113.952C204.827 114.4 205.041 114.96 205.041 115.632C205.041 116.304 204.822 116.869 204.385 117.328C203.958 117.776 203.366 118 202.609 118H198.513V110.272ZM202.481 114.32H199.713V116.944H202.481C202.907 116.944 203.233 116.827 203.457 116.592C203.691 116.347 203.809 116.027 203.809 115.632C203.809 115.237 203.691 114.923 203.457 114.688C203.233 114.443 202.907 114.32 202.481 114.32ZM207.505 118H206.305V110.272H207.505V118ZM214.079 108.384C214.079 108.853 213.956 109.307 213.711 109.744C213.466 110.171 213.156 110.523 212.783 110.8L212.191 110.304C212.447 110.133 212.671 109.909 212.863 109.632C213.066 109.344 213.183 109.072 213.215 108.816C213.172 108.837 213.103 108.848 213.007 108.848C212.783 108.848 212.596 108.773 212.447 108.624C212.298 108.464 212.223 108.267 212.223 108.032C212.223 107.797 212.303 107.595 212.463 107.424C212.634 107.253 212.836 107.168 213.071 107.168C213.348 107.168 213.583 107.28 213.775 107.504C213.978 107.717 214.079 108.011 214.079 108.384ZM211.519 108.384C211.519 108.853 211.396 109.307 211.151 109.744C210.906 110.171 210.591 110.523 210.207 110.8L209.615 110.304C209.871 110.133 210.1 109.909 210.303 109.632C210.506 109.344 210.623 109.072 210.655 108.816C210.612 108.837 210.538 108.848 210.431 108.848C210.207 108.848 210.02 108.773 209.871 108.624C209.732 108.464 209.663 108.267 209.663 108.032C209.663 107.797 209.743 107.595 209.903 107.424C210.074 107.253 210.276 107.168 210.511 107.168C210.788 107.168 211.023 107.28 211.215 107.504C211.418 107.717 211.519 108.011 211.519 108.384Z" fill="#303030"/>
<path d="M128.253 12.1099L84.6327 28.223L77.3482 49.3953L127.407 74.9751L151.04 22.174L128.253 12.1099Z" fill="#FB9531" stroke="#EEEEEE" stroke-width="2"/>
<path d="M77.2476 49.4326L150.856 22.2418" stroke="#EEEEEE"/>
<path d="M84.9946 28.0889L112.301 35.8742L128.069 12.1772" stroke="#EEEEEE"/>
<path d="M84.8131 28.1563L86.0404 46.3875" stroke="#EEEEEE"/>
<path d="M128.07 12.1777L140.065 26.0252" stroke="#EEEEEE"/>
<path d="M85.9715 46.21L127.268 74.6203L112.438 36.2301L85.9715 46.21Z" fill="#FB9531"/>
<path d="M140.428 25.8909L127.268 74.6203M127.268 74.6203L85.9715 46.21L112.438 36.2301L127.268 74.6203Z" stroke="#EEEEEE"/>
<path d="M164.809 50.2848L140.423 39.3666L128.624 45.0216L138.186 75.3842L169.822 63.4667L164.809 50.2848Z" fill="#5C5C5C" stroke="#EEEEEE" stroke-width="2"/>
<path d="M128.567 44.9951L169.719 63.4195" stroke="#EEEEEE"/>
<path d="M140.625 39.4561L148.419 53.5227L164.706 50.2377" stroke="#EEEEEE"/>
<path d="M140.523 39.4105L133.398 47.2782" stroke="#EEEEEE"/>
<path d="M164.706 50.2386L163.771 60.6371" stroke="#EEEEEE"/>
<path d="M133.445 47.1794L138.278 75.1845L148.326 53.722L133.445 47.1794Z" fill="#5C5C5C"/>
<path d="M163.974 60.7278L138.278 75.1845M138.278 75.1845L133.445 47.1794L148.326 53.722L138.278 75.1845Z" stroke="#EEEEEE"/>
<defs>
<filter id="filter0_d" x="0" y="0" width="245" height="151" filterUnits="userSpaceOnUse" color-interpolation-filters="sRGB">
<feFlood flood-opacity="0" result="BackgroundImageFix"/>
<feColorMatrix in="SourceAlpha" type="matrix" values="0 0 0 0 0 0 0 0 0 0 0 0 0 0 0 0 0 0 127 0"/>
<feOffset dy="4"/>
<feGaussianBlur stdDeviation="5"/>
<feColorMatrix type="matrix" values="0 0 0 0 0 0 0 0 0 0 0 0 0 0 0 0 0 0 0.28 0"/>
<feBlend mode="normal" in2="BackgroundImageFix" result="effect1_dropShadow"/>
<feBlend mode="normal" in="SourceGraphic" in2="effect1_dropShadow" result="shape"/>
</filter>
</defs>
</svg>
