<svg width="245" height="151" viewBox="0 0 245 151" fill="none" xmlns="http://www.w3.org/2000/svg">
<g filter="url(#filter0_d)">
<rect x="10" y="6" width="225" height="131" fill="#EEEEEE"/>
</g>
<path d="M32.6464 100H30.4544V89.328H32.7264V96.224L37.6704 89.328H40.0064V100H37.7344V92.848L32.6464 100ZM44.0947 100H42.0627V92.272H44.0947V95.136H47.2947V92.272H49.3267V100H47.2947V96.912H44.0947V100ZM53.9839 92.08C54.8053 92.08 55.4933 92.4747 56.0479 93.264V89.328H58.0799V93.248C58.6133 92.4693 59.3013 92.08 60.1439 92.08C61.0186 92.08 61.7279 92.4427 62.2719 93.168C62.8266 93.8827 63.1039 94.8693 63.1039 96.128C63.1039 97.3867 62.8266 98.3787 62.2719 99.104C61.7279 99.8293 61.0186 100.192 60.1439 100.192C59.3013 100.192 58.6133 99.7973 58.0799 99.008V102.944H56.0479V99.008C55.5253 99.7973 54.8373 100.192 53.9839 100.192C53.1093 100.192 52.3946 99.8347 51.8399 99.12C51.2959 98.3947 51.0239 97.4027 51.0239 96.144C51.0239 94.8853 51.2959 93.8933 51.8399 93.168C52.3946 92.4427 53.1093 92.08 53.9839 92.08ZM54.6399 93.888C54.1813 93.888 53.8026 94.096 53.5039 94.512C53.2159 94.928 53.0719 95.472 53.0719 96.144C53.0719 96.8053 53.2159 97.344 53.5039 97.76C53.8026 98.176 54.1813 98.384 54.6399 98.384C54.9066 98.384 55.1679 98.2987 55.4239 98.128C55.6906 97.9573 55.8986 97.7493 56.0479 97.504V94.768C55.9093 94.5227 55.7013 94.3147 55.4239 94.144C55.1573 93.9733 54.8959 93.888 54.6399 93.888ZM59.4719 98.384C59.9413 98.384 60.3199 98.176 60.6079 97.76C60.8959 97.344 61.0399 96.8 61.0399 96.128C61.0399 95.4667 60.8959 94.928 60.6079 94.512C60.3199 94.096 59.9413 93.888 59.4719 93.888C59.2159 93.888 58.9546 93.9733 58.6879 94.144C58.4213 94.3147 58.2186 94.5227 58.0799 94.768V97.504C58.2186 97.7493 58.4213 97.9573 58.6879 98.128C58.9546 98.2987 59.2159 98.384 59.4719 98.384ZM71.3571 99.024C70.6104 99.8027 69.6184 100.192 68.3811 100.192C67.1437 100.192 66.1517 99.8027 65.4051 99.024C64.6691 98.2347 64.3011 97.2693 64.3011 96.128C64.3011 94.9867 64.6691 94.0267 65.4051 93.248C66.1517 92.4693 67.1437 92.08 68.3811 92.08C69.6184 92.08 70.6104 92.4693 71.3571 93.248C72.1037 94.0267 72.4771 94.9867 72.4771 96.128C72.4771 97.2693 72.1037 98.2347 71.3571 99.024ZM66.9411 97.744C67.2931 98.1707 67.7731 98.384 68.3811 98.384C68.9891 98.384 69.4691 98.1707 69.8211 97.744C70.1837 97.3067 70.3651 96.768 70.3651 96.128C70.3651 95.4987 70.1837 94.9707 69.8211 94.544C69.4691 94.1067 68.9891 93.888 68.3811 93.888C67.7731 93.888 67.2931 94.1067 66.9411 94.544C66.5891 94.9707 66.4131 95.4987 66.4131 96.128C66.4131 96.768 66.5891 97.3067 66.9411 97.744ZM78.4006 100.192C77.4299 100.192 76.6352 99.7973 76.0166 99.008V102.944H73.9846V92.272H76.0166V93.248C76.6246 92.4693 77.4192 92.08 78.4006 92.08C79.4139 92.08 80.2352 92.4427 80.8646 93.168C81.5046 93.8827 81.8246 94.8693 81.8246 96.128C81.8246 97.3867 81.5046 98.3787 80.8646 99.104C80.2352 99.8293 79.4139 100.192 78.4006 100.192ZM77.7606 98.384C78.3472 98.384 78.8166 98.176 79.1686 97.76C79.5312 97.344 79.7126 96.8 79.7126 96.128C79.7126 95.4667 79.5312 94.928 79.1686 94.512C78.8166 94.096 78.3472 93.888 77.7606 93.888C77.4299 93.888 77.0992 93.9733 76.7686 94.144C76.4379 94.3147 76.1872 94.5227 76.0166 94.768V97.504C76.1872 97.7493 76.4379 97.9573 76.7686 98.128C77.1099 98.2987 77.4406 98.384 77.7606 98.384ZM92.4487 100H90.4167V94.976L88.3527 100H87.4247L85.3447 94.976V100H83.3127V92.272H85.9847L87.8887 96.88L89.7607 92.272H92.4487V100ZM101.141 100H99.1089V99.2C98.5543 99.8613 97.7383 100.192 96.6609 100.192C95.9676 100.192 95.3436 99.968 94.7889 99.52C94.2449 99.0613 93.9729 98.432 93.9729 97.632C93.9729 96.8 94.2396 96.176 94.7729 95.76C95.3169 95.344 95.9463 95.136 96.6609 95.136C97.7596 95.136 98.5756 95.4507 99.1089 96.08V95.04C99.1089 94.6453 98.9543 94.3307 98.6449 94.096C98.3356 93.8613 97.9249 93.744 97.4129 93.744C96.5703 93.744 95.8183 94.048 95.1569 94.656L94.3889 93.296C95.3063 92.4853 96.4316 92.08 97.7649 92.08C98.7569 92.08 99.5676 92.3093 100.197 92.768C100.826 93.2267 101.141 93.9733 101.141 95.008V100ZM97.4769 98.816C98.2343 98.816 98.7783 98.592 99.1089 98.144V97.184C98.7783 96.736 98.2343 96.512 97.4769 96.512C97.0609 96.512 96.7143 96.6187 96.4369 96.832C96.1596 97.0347 96.0209 97.3173 96.0209 97.68C96.0209 98.032 96.1596 98.3093 96.4369 98.512C96.7143 98.7147 97.0609 98.816 97.4769 98.816ZM109.236 101.968V100H103.156V92.272H105.188V98.224H108.388V92.272H110.42V98.224H111.268V101.968H109.236ZM114.499 100H112.547V92.272H114.579V96.944L117.763 92.272H119.811V100H117.779V95.152L114.499 100ZM123.876 100H121.572L123.364 97.2C122.884 97.0827 122.479 96.816 122.148 96.4C121.818 95.984 121.652 95.4507 121.652 94.8C121.652 94.0853 121.892 93.488 122.372 93.008C122.852 92.5173 123.503 92.272 124.324 92.272H129.012V100H126.98V97.344H125.396L123.876 100ZM124.644 95.648H126.98V93.984H124.644C124.367 93.984 124.143 94.0587 123.972 94.208C123.802 94.3573 123.716 94.5547 123.716 94.8C123.716 95.056 123.796 95.264 123.956 95.424C124.127 95.5733 124.356 95.648 124.644 95.648ZM141.654 99.024C140.907 99.8027 139.915 100.192 138.678 100.192C137.441 100.192 136.449 99.8027 135.702 99.024C134.966 98.2347 134.598 97.2693 134.598 96.128C134.598 94.9867 134.966 94.0267 135.702 93.248C136.449 92.4693 137.441 92.08 138.678 92.08C139.915 92.08 140.907 92.4693 141.654 93.248C142.401 94.0267 142.774 94.9867 142.774 96.128C142.774 97.2693 142.401 98.2347 141.654 99.024ZM137.238 97.744C137.59 98.1707 138.07 98.384 138.678 98.384C139.286 98.384 139.766 98.1707 140.118 97.744C140.481 97.3067 140.662 96.768 140.662 96.128C140.662 95.4987 140.481 94.9707 140.118 94.544C139.766 94.1067 139.286 93.888 138.678 93.888C138.07 93.888 137.59 94.1067 137.238 94.544C136.886 94.9707 136.71 95.4987 136.71 96.128C136.71 96.768 136.886 97.3067 137.238 97.744ZM150.519 97.728C150.871 98.1653 151.351 98.384 151.959 98.384C152.567 98.384 153.047 98.1653 153.399 97.728C153.762 97.2907 153.943 96.7467 153.943 96.096C153.943 95.488 153.762 94.9707 153.399 94.544C153.047 94.1067 152.567 93.888 151.959 93.888C151.351 93.888 150.871 94.1013 150.519 94.528C150.167 94.9547 149.991 95.4773 149.991 96.096C149.991 96.7467 150.167 97.2907 150.519 97.728ZM151.959 100.192C150.701 100.192 149.703 99.7813 148.967 98.96C148.242 98.128 147.879 97.0667 147.879 95.776C147.879 93.9307 148.21 92.5493 148.871 91.632C149.533 90.7147 150.541 90.1653 151.895 89.984C153.058 89.8133 153.639 89.5947 153.639 89.328H155.751C155.751 90.448 154.679 91.1413 152.535 91.408C150.925 91.6213 149.997 92.2667 149.751 93.344C150.391 92.5013 151.271 92.08 152.391 92.08C153.469 92.08 154.343 92.4747 155.015 93.264C155.698 94.0533 156.039 95.0027 156.039 96.112C156.039 97.2533 155.666 98.2187 154.919 99.008C154.183 99.7973 153.197 100.192 151.959 100.192ZM164.282 100H162.25V99.2C161.695 99.8613 160.879 100.192 159.802 100.192C159.108 100.192 158.484 99.968 157.93 99.52C157.386 99.0613 157.114 98.432 157.114 97.632C157.114 96.8 157.38 96.176 157.914 95.76C158.458 95.344 159.087 95.136 159.802 95.136C160.9 95.136 161.716 95.4507 162.25 96.08V95.04C162.25 94.6453 162.095 94.3307 161.786 94.096C161.476 93.8613 161.066 93.744 160.554 93.744C159.711 93.744 158.959 94.048 158.298 94.656L157.53 93.296C158.447 92.4853 159.572 92.08 160.906 92.08C161.898 92.08 162.708 92.3093 163.338 92.768C163.967 93.2267 164.282 93.9733 164.282 95.008V100ZM160.618 98.816C161.375 98.816 161.919 98.592 162.25 98.144V97.184C161.919 96.736 161.375 96.512 160.618 96.512C160.202 96.512 159.855 96.6187 159.578 96.832C159.3 97.0347 159.162 97.3173 159.162 97.68C159.162 98.032 159.3 98.3093 159.578 98.512C159.855 98.7147 160.202 98.816 160.618 98.816ZM165.577 100.192V98.528C165.897 98.528 166.153 98.3413 166.345 97.968C166.537 97.584 166.692 96.9333 166.809 96.016L167.305 92.272H173.561V100H171.529V94.048H169.081L168.825 96.256C168.665 97.6107 168.324 98.608 167.801 99.248C167.289 99.8773 166.548 100.192 165.577 100.192ZM174.858 100.192V98.528C175.178 98.528 175.434 98.3413 175.626 97.968C175.818 97.584 175.973 96.9333 176.09 96.016L176.586 92.272H182.842V100H180.81V94.048H178.362L178.106 96.256C177.946 97.6107 177.605 98.608 177.082 99.248C176.57 99.8773 175.829 100.192 174.858 100.192ZM191.532 100H189.5V99.2C188.945 99.8613 188.129 100.192 187.052 100.192C186.358 100.192 185.734 99.968 185.18 99.52C184.636 99.0613 184.364 98.432 184.364 97.632C184.364 96.8 184.63 96.176 185.164 95.76C185.708 95.344 186.337 95.136 187.052 95.136C188.15 95.136 188.966 95.4507 189.5 96.08V95.04C189.5 94.6453 189.345 94.3307 189.036 94.096C188.726 93.8613 188.316 93.744 187.804 93.744C186.961 93.744 186.209 94.048 185.548 94.656L184.78 93.296C185.697 92.4853 186.822 92.08 188.156 92.08C189.148 92.08 189.958 92.3093 190.588 92.768C191.217 93.2267 191.532 93.9733 191.532 95.008V100ZM187.868 98.816C188.625 98.816 189.169 98.592 189.5 98.144V97.184C189.169 96.736 188.625 96.512 187.868 96.512C187.452 96.512 187.105 96.6187 186.828 96.832C186.55 97.0347 186.412 97.3173 186.412 97.68C186.412 98.032 186.55 98.3093 186.828 98.512C187.105 98.7147 187.452 98.816 187.868 98.816ZM200.603 100H198.331L196.571 97.392L194.795 100H192.539L195.275 96.032L192.699 92.272H194.971L196.571 94.656L198.155 92.272H200.427L197.835 96.032L200.603 100ZM65.7771 119.192C64.2198 119.192 63.0198 118.781 62.1771 117.96L63.1051 116.696C63.7985 117.283 64.6891 117.576 65.7771 117.576C66.2891 117.576 66.6838 117.501 66.9611 117.352C67.2385 117.203 67.3771 117 67.3771 116.744C67.3771 116.168 66.8011 115.88 65.6491 115.88H64.0651V114.312H65.6491C66.7051 114.312 67.2331 114.035 67.2331 113.48C67.2331 113.245 67.0891 113.059 66.8011 112.92C66.5131 112.771 66.1398 112.696 65.6811 112.696C64.6785 112.696 63.8785 112.989 63.2811 113.576L62.2891 112.376C63.1425 111.523 64.2358 111.096 65.5691 111.096C66.7638 111.085 67.6918 111.272 68.3531 111.656C69.0145 112.029 69.3451 112.547 69.3451 113.208C69.3451 113.677 69.1478 114.077 68.7531 114.408C68.3585 114.739 67.8838 114.947 67.3291 115.032C67.8731 115.064 68.3691 115.245 68.8171 115.576C69.2758 115.907 69.5051 116.339 69.5051 116.872C69.5051 117.565 69.1691 118.125 68.4971 118.552C67.8251 118.979 66.9185 119.192 65.7771 119.192ZM77.6956 119H75.6636V118.2C75.109 118.861 74.293 119.192 73.2156 119.192C72.5223 119.192 71.8983 118.968 71.3436 118.52C70.7996 118.061 70.5276 117.432 70.5276 116.632C70.5276 115.8 70.7943 115.176 71.3276 114.76C71.8716 114.344 72.501 114.136 73.2156 114.136C74.3143 114.136 75.1303 114.451 75.6636 115.08V114.04C75.6636 113.645 75.509 113.331 75.1996 113.096C74.8903 112.861 74.4796 112.744 73.9676 112.744C73.125 112.744 72.373 113.048 71.7116 113.656L70.9436 112.296C71.861 111.485 72.9863 111.08 74.3196 111.08C75.3116 111.08 76.1223 111.309 76.7516 111.768C77.381 112.227 77.6956 112.973 77.6956 114.008V119ZM74.0316 117.816C74.789 117.816 75.333 117.592 75.6636 117.144V116.184C75.333 115.736 74.789 115.512 74.0316 115.512C73.6156 115.512 73.269 115.619 72.9916 115.832C72.7143 116.035 72.5756 116.317 72.5756 116.68C72.5756 117.032 72.7143 117.309 72.9916 117.512C73.269 117.715 73.6156 117.816 74.0316 117.816ZM85.8369 119H83.8049V111.272H85.8369V114.136H89.0369V111.272H91.0689V119H89.0369V115.912H85.8369V119ZM99.7581 119H97.7261V118.2C97.1715 118.861 96.3555 119.192 95.2781 119.192C94.5848 119.192 93.9608 118.968 93.4061 118.52C92.8621 118.061 92.5901 117.432 92.5901 116.632C92.5901 115.8 92.8568 115.176 93.3901 114.76C93.9341 114.344 94.5635 114.136 95.2781 114.136C96.3768 114.136 97.1928 114.451 97.7261 115.08V114.04C97.7261 113.645 97.5715 113.331 97.2621 113.096C96.9528 112.861 96.5421 112.744 96.0301 112.744C95.1875 112.744 94.4355 113.048 93.7741 113.656L93.0061 112.296C93.9235 111.485 95.0488 111.08 96.3821 111.08C97.3741 111.08 98.1848 111.309 98.8141 111.768C99.4435 112.227 99.7581 112.973 99.7581 114.008V119ZM96.0941 117.816C96.8515 117.816 97.3955 117.592 97.7261 117.144V116.184C97.3955 115.736 96.8515 115.512 96.0941 115.512C95.6781 115.512 95.3315 115.619 95.0541 115.832C94.7768 116.035 94.6381 116.317 94.6381 116.68C94.6381 117.032 94.7768 117.309 95.0541 117.512C95.3315 117.715 95.6781 117.816 96.0941 117.816ZM106.19 119.192C105.219 119.192 104.424 118.797 103.806 118.008V121.944H101.774V111.272H103.806V112.248C104.414 111.469 105.208 111.08 106.19 111.08C107.203 111.08 108.024 111.443 108.654 112.168C109.294 112.883 109.614 113.869 109.614 115.128C109.614 116.387 109.294 117.379 108.654 118.104C108.024 118.829 107.203 119.192 106.19 119.192ZM105.55 117.384C106.136 117.384 106.606 117.176 106.958 116.76C107.32 116.344 107.502 115.8 107.502 115.128C107.502 114.467 107.32 113.928 106.958 113.512C106.606 113.096 106.136 112.888 105.55 112.888C105.219 112.888 104.888 112.973 104.558 113.144C104.227 113.315 103.976 113.523 103.806 113.768V116.504C103.976 116.749 104.227 116.957 104.558 117.128C104.899 117.299 105.23 117.384 105.55 117.384ZM110.83 122.024L111.134 120.2C111.326 120.285 111.539 120.328 111.774 120.328C112.318 120.328 112.675 120.141 112.846 119.768L113.134 119.112L109.998 111.272H112.174L114.19 116.648L116.206 111.272H118.398L114.766 120.264C114.499 120.947 114.126 121.421 113.646 121.688C113.166 121.965 112.563 122.115 111.838 122.136C111.464 122.136 111.128 122.099 110.83 122.024ZM128.409 111.272H130.457V119H119.305V111.272H121.337V117.224H123.865V111.272H125.897V117.224H128.409V111.272ZM136.109 119.192C134.914 119.192 133.927 118.819 133.149 118.072C132.37 117.325 131.981 116.344 131.981 115.128C131.981 113.987 132.354 113.027 133.101 112.248C133.858 111.469 134.818 111.08 135.981 111.08C137.133 111.08 138.066 111.475 138.781 112.264C139.495 113.043 139.853 114.067 139.853 115.336V115.784H134.109C134.173 116.296 134.402 116.723 134.797 117.064C135.191 117.405 135.703 117.576 136.333 117.576C136.674 117.576 137.042 117.507 137.437 117.368C137.842 117.229 138.162 117.043 138.397 116.808L139.293 118.12C138.514 118.835 137.453 119.192 136.109 119.192ZM137.885 114.408C137.853 113.971 137.677 113.576 137.357 113.224C137.047 112.872 136.589 112.696 135.981 112.696C135.405 112.696 134.957 112.872 134.637 113.224C134.317 113.565 134.13 113.96 134.077 114.408H137.885ZM143.353 119H141.321V111.272H143.353V114.136H146.553V111.272H148.585V119H146.553V115.912H143.353V119ZM152.554 119H150.602V111.272H152.634V115.944L155.818 111.272H157.866V119H155.834V114.152L152.554 119ZM161.931 119H159.627L161.419 116.2C160.939 116.083 160.534 115.816 160.203 115.4C159.872 114.984 159.707 114.451 159.707 113.8C159.707 113.085 159.947 112.488 160.427 112.008C160.907 111.517 161.558 111.272 162.379 111.272H167.067V119H165.035V116.344H163.451L161.931 119ZM162.699 114.648H165.035V112.984H162.699C162.422 112.984 162.198 113.059 162.027 113.208C161.856 113.357 161.771 113.555 161.771 113.8C161.771 114.056 161.851 114.264 162.011 114.424C162.182 114.573 162.411 114.648 162.699 114.648Z" fill="#303030"/>
<circle cx="119" cy="46" r="29" fill="#FB9531"/>
<g clip-path="url(#clip0)">
<path d="M145.843 32.4392C143.071 27.6899 139.311 23.9296 134.562 21.1576C129.811 18.3857 124.626 17 119.001 17C113.377 17 108.19 18.3857 103.44 21.1576C98.6905 23.9292 94.9302 27.6895 92.158 32.4392C89.3857 37.1891 88 42.3762 88 48.0001C88 53.6239 89.3861 58.8104 92.1576 63.5607C94.9296 68.309 98.6899 72.0702 103.44 74.8426C108.19 77.6143 113.376 79.0001 119 79.0001C124.624 79.0001 129.812 77.6143 134.561 74.8426C139.311 72.0712 143.071 68.3099 145.843 63.5607C148.614 58.8104 150 53.6235 150 48.0001C150 42.3762 148.614 37.1884 145.843 32.4392ZM124.168 67.3344C124.168 67.7118 124.046 68.0272 123.804 68.2827C123.562 68.5381 123.266 68.6659 122.916 68.6659H115.166C114.816 68.6659 114.506 68.5313 114.238 68.2624C113.968 67.9934 113.834 67.6838 113.834 67.3346V59.6658C113.834 59.3155 113.968 59.0058 114.238 58.7368C114.507 58.4679 114.816 58.3337 115.166 58.3337H122.916C123.266 58.3337 123.563 58.4619 123.804 58.7164C124.046 58.9733 124.168 59.2883 124.168 59.6658V67.3344ZM124.087 53.4496C124.06 53.7185 123.919 53.954 123.664 54.1559C123.408 54.3572 123.092 54.4578 122.716 54.4578H115.248C114.871 54.4578 114.548 54.3572 114.279 54.1559C114.009 53.954 113.875 53.7185 113.875 53.4496L113.189 28.3825C113.189 28.0591 113.323 27.8174 113.592 27.6558C113.861 27.4408 114.184 27.3329 114.561 27.3329H123.442C123.819 27.3329 124.142 27.4404 124.411 27.6558C124.68 27.8174 124.813 28.0596 124.813 28.3825L124.087 53.4496Z" fill="#5C5C5C"/>
</g>
<defs>
<filter id="filter0_d" x="0" y="0" width="245" height="151" filterUnits="userSpaceOnUse" color-interpolation-filters="sRGB">
<feFlood flood-opacity="0" result="BackgroundImageFix"/>
<feColorMatrix in="SourceAlpha" type="matrix" values="0 0 0 0 0 0 0 0 0 0 0 0 0 0 0 0 0 0 127 0"/>
<feOffset dy="4"/>
<feGaussianBlur stdDeviation="5"/>
<feColorMatrix type="matrix" values="0 0 0 0 0 0 0 0 0 0 0 0 0 0 0 0 0 0 0.28 0"/>
<feBlend mode="normal" in2="BackgroundImageFix" result="effect1_dropShadow"/>
<feBlend mode="normal" in="SourceGraphic" in2="effect1_dropShadow" result="shape"/>
</filter>
<clipPath id="clip0">
<rect x="88" y="17" width="62" height="62" fill="white"/>
</clipPath>
</defs>
</svg>
