<svg width="245" height="151" viewBox="0 0 245 151" fill="none" xmlns="http://www.w3.org/2000/svg">
<g filter="url(#filter0_d)">
<rect x="10" y="6" width="225" height="131" fill="#EEEEEE"/>
</g>
<path d="M38.4821 103.856H35.6221V93.0162H29.3221V103.856H26.4821V90.5162H38.4821V103.856ZM46.571 104.096C45.3577 104.096 44.3643 103.603 43.591 102.616V107.536H41.051V94.1962H43.591V95.4162C44.351 94.4429 45.3443 93.9562 46.571 93.9562C47.8377 93.9562 48.8643 94.4095 49.651 95.3162C50.451 96.2095 50.851 97.4429 50.851 99.0162C50.851 100.59 50.451 101.83 49.651 102.736C48.8643 103.643 47.8377 104.096 46.571 104.096ZM45.771 101.836C46.5043 101.836 47.091 101.576 47.531 101.056C47.9843 100.536 48.211 99.8562 48.211 99.0162C48.211 98.1895 47.9843 97.5162 47.531 96.9962C47.091 96.4762 46.5043 96.2162 45.771 96.2162C45.3577 96.2162 44.9443 96.3229 44.531 96.5362C44.1177 96.7495 43.8043 97.0095 43.591 97.3162V100.736C43.8043 101.043 44.1177 101.303 44.531 101.516C44.9577 101.73 45.371 101.836 45.771 101.836ZM60.9112 102.636C59.9778 103.61 58.7378 104.096 57.1912 104.096C55.6445 104.096 54.4045 103.61 53.4712 102.636C52.5512 101.65 52.0912 100.443 52.0912 99.0162C52.0912 97.5895 52.5512 96.3895 53.4712 95.4162C54.4045 94.4429 55.6445 93.9562 57.1912 93.9562C58.7378 93.9562 59.9778 94.4429 60.9112 95.4162C61.8445 96.3895 62.3112 97.5895 62.3112 99.0162C62.3112 100.443 61.8445 101.65 60.9112 102.636ZM55.3912 101.036C55.8312 101.57 56.4312 101.836 57.1912 101.836C57.9512 101.836 58.5512 101.57 58.9912 101.036C59.4445 100.49 59.6712 99.8162 59.6712 99.0162C59.6712 98.2295 59.4445 97.5695 58.9912 97.0362C58.5512 96.4895 57.9512 96.2162 57.1912 96.2162C56.4312 96.2162 55.8312 96.4895 55.3912 97.0362C54.9512 97.5695 54.7312 98.2295 54.7312 99.0162C54.7312 99.8162 54.9512 100.49 55.3912 101.036ZM68.6955 104.096C67.2022 104.096 65.9755 103.623 65.0155 102.676C64.0555 101.73 63.5755 100.51 63.5755 99.0162C63.5755 97.5362 64.0555 96.3229 65.0155 95.3762C65.9755 94.4295 67.2022 93.9562 68.6955 93.9562C70.4022 93.9562 71.6755 94.5362 72.5155 95.6962L70.8555 97.2562C70.3889 96.5629 69.7089 96.2162 68.8155 96.2162C68.0422 96.2162 67.4089 96.4762 66.9155 96.9962C66.4355 97.5029 66.1955 98.1762 66.1955 99.0162C66.1955 99.8562 66.4355 100.536 66.9155 101.056C67.4089 101.576 68.0422 101.836 68.8155 101.836C69.6822 101.836 70.3622 101.49 70.8555 100.796L72.5155 102.336C71.6755 103.51 70.4022 104.096 68.6955 104.096ZM85.596 103.856H83.056V97.5762L80.476 103.856H79.316L76.716 97.5762V103.856H74.176V94.1962H77.516L79.896 99.9562L82.236 94.1962H85.596V103.856ZM96.3213 102.636C95.388 103.61 94.148 104.096 92.6013 104.096C91.0547 104.096 89.8147 103.61 88.8813 102.636C87.9613 101.65 87.5013 100.443 87.5013 99.0162C87.5013 97.5895 87.9613 96.3895 88.8813 95.4162C89.8147 94.4429 91.0547 93.9562 92.6013 93.9562C94.148 93.9562 95.388 94.4429 96.3213 95.4162C97.2547 96.3895 97.7213 97.5895 97.7213 99.0162C97.7213 100.443 97.2547 101.65 96.3213 102.636ZM90.8013 101.036C91.2413 101.57 91.8413 101.836 92.6013 101.836C93.3613 101.836 93.9613 101.57 94.4013 101.036C94.8547 100.49 95.0813 99.8162 95.0813 99.0162C95.0813 98.2295 94.8547 97.5695 94.4013 97.0362C93.9613 96.4895 93.3613 96.2162 92.6013 96.2162C91.8413 96.2162 91.2413 96.4895 90.8013 97.0362C90.3613 97.5695 90.1413 98.2295 90.1413 99.0162C90.1413 99.8162 90.3613 100.49 90.8013 101.036ZM103.946 103.856H101.386V96.4162H98.6857V94.1962H106.646V96.4162H103.946V103.856ZM113.759 104.096C112.545 104.096 111.552 103.603 110.779 102.616V107.536H108.239V94.1962H110.779V95.4162C111.539 94.4429 112.532 93.9562 113.759 93.9562C115.025 93.9562 116.052 94.4095 116.839 95.3162C117.639 96.2095 118.039 97.4429 118.039 99.0162C118.039 100.59 117.639 101.83 116.839 102.736C116.052 103.643 115.025 104.096 113.759 104.096ZM112.959 101.836C113.692 101.836 114.279 101.576 114.719 101.056C115.172 100.536 115.399 99.8562 115.399 99.0162C115.399 98.1895 115.172 97.5162 114.719 96.9962C114.279 96.4762 113.692 96.2162 112.959 96.2162C112.545 96.2162 112.132 96.3229 111.719 96.5362C111.305 96.7495 110.992 97.0095 110.779 97.3162V100.736C110.992 101.043 111.305 101.303 111.719 101.516C112.145 101.73 112.559 101.836 112.959 101.836ZM124.439 104.096C122.945 104.096 121.712 103.63 120.739 102.696C119.765 101.763 119.279 100.536 119.279 99.0162C119.279 97.5895 119.745 96.3895 120.679 95.4162C121.625 94.4429 122.825 93.9562 124.279 93.9562C125.719 93.9562 126.885 94.4495 127.779 95.4362C128.672 96.4095 129.119 97.6895 129.119 99.2762V99.8362H121.939C122.019 100.476 122.305 101.01 122.799 101.436C123.292 101.863 123.932 102.076 124.719 102.076C125.145 102.076 125.605 101.99 126.099 101.816C126.605 101.643 127.005 101.41 127.299 101.116L128.419 102.756C127.445 103.65 126.119 104.096 124.439 104.096ZM126.659 98.1162C126.619 97.5695 126.399 97.0762 125.999 96.6362C125.612 96.1962 125.039 95.9762 124.279 95.9762C123.559 95.9762 122.999 96.1962 122.599 96.6362C122.199 97.0629 121.965 97.5562 121.899 98.1162H126.659ZM135.293 103.856H132.733V96.4162H130.033V94.1962H137.993V96.4162H135.293V103.856ZM139.586 94.1962H142.126V97.5162H145.426C146.493 97.5162 147.32 97.8162 147.906 98.4162C148.493 99.0162 148.786 99.7695 148.786 100.676C148.786 101.57 148.486 102.323 147.886 102.936C147.286 103.55 146.466 103.856 145.426 103.856H139.586V94.1962ZM145.046 99.6362H142.126V101.716H145.046C145.393 101.716 145.666 101.623 145.866 101.436C146.08 101.236 146.186 100.983 146.186 100.676C146.186 100.37 146.08 100.123 145.866 99.9362C145.666 99.7362 145.393 99.6362 145.046 99.6362ZM160.258 104.096C158.765 104.096 157.538 103.623 156.578 102.676C155.618 101.73 155.138 100.51 155.138 99.0162C155.138 97.5362 155.618 96.3229 156.578 95.3762C157.538 94.4295 158.765 93.9562 160.258 93.9562C161.965 93.9562 163.238 94.5362 164.078 95.6962L162.418 97.2562C161.951 96.5629 161.271 96.2162 160.378 96.2162C159.605 96.2162 158.971 96.4762 158.478 96.9962C157.998 97.5029 157.758 98.1762 157.758 99.0162C157.758 99.8562 157.998 100.536 158.478 101.056C158.971 101.576 159.605 101.836 160.378 101.836C161.245 101.836 161.925 101.49 162.418 100.796L164.078 102.336C163.238 103.51 161.965 104.096 160.258 104.096ZM170.079 103.856H167.519V96.4162H164.819V94.1962H172.779V96.4162H170.079V103.856ZM182.711 103.856H180.171V102.856C179.478 103.683 178.458 104.096 177.111 104.096C176.245 104.096 175.465 103.816 174.771 103.256C174.091 102.683 173.751 101.896 173.751 100.896C173.751 99.8562 174.085 99.0762 174.751 98.5562C175.431 98.0362 176.218 97.7762 177.111 97.7762C178.485 97.7762 179.505 98.1695 180.171 98.9562V97.6562C180.171 97.1629 179.978 96.7695 179.591 96.4762C179.205 96.1829 178.691 96.0362 178.051 96.0362C176.998 96.0362 176.058 96.4162 175.231 97.1762L174.271 95.4762C175.418 94.4629 176.825 93.9562 178.491 93.9562C179.731 93.9562 180.745 94.2429 181.531 94.8162C182.318 95.3895 182.711 96.3229 182.711 97.6162V103.856ZM178.131 102.376C179.078 102.376 179.758 102.096 180.171 101.536V100.336C179.758 99.7762 179.078 99.4962 178.131 99.4962C177.611 99.4962 177.178 99.6295 176.831 99.8962C176.485 100.15 176.311 100.503 176.311 100.956C176.311 101.396 176.485 101.743 176.831 101.996C177.178 102.25 177.611 102.376 178.131 102.376ZM189.571 103.856H187.011V96.4162H184.311V94.1962H192.271V96.4162H189.571V103.856ZM193.524 107.636L193.904 105.356C194.144 105.463 194.41 105.516 194.704 105.516C195.384 105.516 195.83 105.283 196.044 104.816L196.404 103.996L192.484 94.1962H195.204L197.724 100.916L200.244 94.1962H202.984L198.444 105.436C198.11 106.29 197.644 106.883 197.044 107.216C196.444 107.563 195.69 107.75 194.784 107.776C194.317 107.776 193.897 107.73 193.524 107.636ZM208.617 104.096C207.124 104.096 205.897 103.623 204.937 102.676C203.977 101.73 203.497 100.51 203.497 99.0162C203.497 97.5362 203.977 96.3229 204.937 95.3762C205.897 94.4295 207.124 93.9562 208.617 93.9562C210.324 93.9562 211.597 94.5362 212.437 95.6962L210.777 97.2562C210.311 96.5629 209.631 96.2162 208.737 96.2162C207.964 96.2162 207.331 96.4762 206.837 96.9962C206.357 97.5029 206.117 98.1762 206.117 99.0162C206.117 99.8562 206.357 100.536 206.837 101.056C207.331 101.576 207.964 101.836 208.737 101.836C209.604 101.836 210.284 101.49 210.777 100.796L212.437 102.336C211.597 103.51 210.324 104.096 208.617 104.096ZM72.4124 127.856H69.8724V121.576L67.2924 127.856H66.1324L63.5324 121.576V127.856H60.9924V118.196H64.3324L66.7124 123.956L69.0524 118.196H72.4124V127.856ZM83.1377 126.636C82.2044 127.61 80.9644 128.096 79.4177 128.096C77.8711 128.096 76.6311 127.61 75.6977 126.636C74.7777 125.65 74.3177 124.443 74.3177 123.016C74.3177 121.59 74.7777 120.39 75.6977 119.416C76.6311 118.443 77.8711 117.956 79.4177 117.956C80.9644 117.956 82.2044 118.443 83.1377 119.416C84.0711 120.39 84.5377 121.59 84.5377 123.016C84.5377 124.443 84.0711 125.65 83.1377 126.636ZM77.6177 125.036C78.0577 125.57 78.6577 125.836 79.4177 125.836C80.1777 125.836 80.7777 125.57 81.2177 125.036C81.6711 124.49 81.8977 123.816 81.8977 123.016C81.8977 122.23 81.6711 121.57 81.2177 121.036C80.7777 120.49 80.1777 120.216 79.4177 120.216C78.6577 120.216 78.0577 120.49 77.6177 121.036C77.1777 121.57 76.9577 122.23 76.9577 123.016C76.9577 123.816 77.1777 124.49 77.6177 125.036ZM88.8621 127.856H86.4221V118.196H88.9621V124.036L92.9421 118.196H95.5021V127.856H92.9621V121.796L88.8621 127.856ZM106.844 127.856H104.004L101.804 124.596L99.5837 127.856H96.7637L100.184 122.896L96.9637 118.196H99.8037L101.804 121.176L103.784 118.196H106.624L103.384 122.896L106.844 127.856ZM116.739 128.096C114.792 128.096 113.292 127.583 112.239 126.556L113.399 124.976C114.266 125.71 115.379 126.076 116.739 126.076C117.379 126.076 117.872 125.983 118.219 125.796C118.566 125.61 118.739 125.356 118.739 125.036C118.739 124.316 118.019 123.956 116.579 123.956H114.599V121.996H116.579C117.899 121.996 118.559 121.65 118.559 120.956C118.559 120.663 118.379 120.43 118.019 120.256C117.659 120.07 117.192 119.976 116.619 119.976C115.366 119.976 114.366 120.343 113.619 121.076L112.379 119.576C113.446 118.51 114.812 117.976 116.479 117.976C117.972 117.963 119.132 118.196 119.959 118.676C120.786 119.143 121.199 119.79 121.199 120.616C121.199 121.203 120.952 121.703 120.459 122.116C119.966 122.53 119.372 122.79 118.679 122.896C119.359 122.936 119.979 123.163 120.539 123.576C121.112 123.99 121.399 124.53 121.399 125.196C121.399 126.063 120.979 126.763 120.139 127.296C119.299 127.83 118.166 128.096 116.739 128.096ZM131.637 127.856H129.097V126.856C128.404 127.683 127.384 128.096 126.037 128.096C125.17 128.096 124.39 127.816 123.697 127.256C123.017 126.683 122.677 125.896 122.677 124.896C122.677 123.856 123.01 123.076 123.677 122.556C124.357 122.036 125.144 121.776 126.037 121.776C127.41 121.776 128.43 122.17 129.097 122.956V121.656C129.097 121.163 128.904 120.77 128.517 120.476C128.13 120.183 127.617 120.036 126.977 120.036C125.924 120.036 124.984 120.416 124.157 121.176L123.197 119.476C124.344 118.463 125.75 117.956 127.417 117.956C128.657 117.956 129.67 118.243 130.457 118.816C131.244 119.39 131.637 120.323 131.637 121.616V127.856ZM127.057 126.376C128.004 126.376 128.684 126.096 129.097 125.536V124.336C128.684 123.776 128.004 123.496 127.057 123.496C126.537 123.496 126.104 123.63 125.757 123.896C125.41 124.15 125.237 124.503 125.237 124.956C125.237 125.396 125.41 125.743 125.757 125.996C126.104 126.25 126.537 126.376 127.057 126.376ZM136.716 127.856H133.836L136.076 124.356C135.476 124.21 134.97 123.876 134.556 123.356C134.143 122.836 133.936 122.17 133.936 121.356C133.936 120.463 134.236 119.716 134.836 119.116C135.436 118.503 136.25 118.196 137.276 118.196H143.136V127.856H140.596V124.536H138.616L136.716 127.856ZM137.676 122.416H140.596V120.336H137.676C137.33 120.336 137.05 120.43 136.836 120.616C136.623 120.803 136.516 121.05 136.516 121.356C136.516 121.676 136.616 121.936 136.816 122.136C137.03 122.323 137.316 122.416 137.676 122.416ZM151.921 127.856H145.621V118.196H151.741C152.675 118.196 153.401 118.436 153.921 118.916C154.441 119.396 154.701 119.983 154.701 120.676C154.701 121.236 154.548 121.71 154.241 122.096C153.935 122.483 153.541 122.743 153.061 122.876C153.595 122.996 154.035 123.276 154.381 123.716C154.728 124.156 154.901 124.663 154.901 125.236C154.901 125.996 154.635 126.623 154.101 127.116C153.581 127.61 152.855 127.856 151.921 127.856ZM151.301 125.776C151.608 125.776 151.848 125.696 152.021 125.536C152.208 125.376 152.301 125.156 152.301 124.876C152.301 124.623 152.208 124.41 152.021 124.236C151.848 124.063 151.608 123.976 151.301 123.976H148.161V125.776H151.301ZM151.221 121.896C151.488 121.896 151.701 121.823 151.861 121.676C152.035 121.516 152.121 121.323 152.121 121.096C152.121 120.856 152.041 120.663 151.881 120.516C151.721 120.356 151.501 120.276 151.221 120.276H148.161V121.896H151.221ZM165.54 126.636C164.607 127.61 163.367 128.096 161.82 128.096C160.273 128.096 159.033 127.61 158.1 126.636C157.18 125.65 156.72 124.443 156.72 123.016C156.72 121.59 157.18 120.39 158.1 119.416C159.033 118.443 160.273 117.956 161.82 117.956C163.367 117.956 164.607 118.443 165.54 119.416C166.473 120.39 166.94 121.59 166.94 123.016C166.94 124.443 166.473 125.65 165.54 126.636ZM160.02 125.036C160.46 125.57 161.06 125.836 161.82 125.836C162.58 125.836 163.18 125.57 163.62 125.036C164.073 124.49 164.3 123.816 164.3 123.016C164.3 122.23 164.073 121.57 163.62 121.036C163.18 120.49 162.58 120.216 161.82 120.216C161.06 120.216 160.46 120.49 160.02 121.036C159.58 121.57 159.36 122.23 159.36 123.016C159.36 123.816 159.58 124.49 160.02 125.036ZM178.264 127.856H175.084L172.524 124.136L171.364 125.376V127.856H168.824V118.196H171.364V122.496L175.024 118.196H178.144L174.324 122.576L178.264 127.856Z" fill="#303030"/>
<path d="M119.464 40.0851C127.876 40.0851 134.696 33.8609 134.696 26.1829C134.696 18.505 127.876 12.2808 119.464 12.2808C111.052 12.2808 104.232 18.505 104.232 26.1829C104.232 33.8609 111.052 40.0851 119.464 40.0851Z" fill="#5C5C5C"/>
<path d="M149.927 71.3654V57.4632C149.927 55.3779 148.785 53.2926 146.881 51.9023C142.692 48.7743 137.361 46.689 132.03 45.2988C128.222 44.2561 124.033 43.561 119.464 43.561C115.275 43.561 111.086 44.2561 106.897 45.2988C101.566 46.689 96.2351 49.1219 92.0464 51.9023C90.1424 53.2926 89 55.3779 89 57.4632V71.3654H149.927Z" fill="#5C5C5C"/>
<g clip-path="url(#clip0)">
<path d="M162.719 59.2749H148.625V46.6291C148.625 45.9942 148.051 45.4795 147.344 45.4795H139.656C138.949 45.4795 138.375 45.9942 138.375 46.6291V59.2749H124.281C123.574 59.2749 123 59.7896 123 60.4245V67.3222C123 67.9571 123.574 68.4718 124.281 68.4718H138.375V81.1176C138.375 81.7525 138.949 82.2672 139.656 82.2672H147.344C148.051 82.2672 148.625 81.7525 148.625 81.1176V68.4718H162.719C163.426 68.4718 164 67.9571 164 67.3222V60.4245C164 59.7896 163.426 59.2749 162.719 59.2749Z" fill="#FC8819"/>
</g>
<defs>
<filter id="filter0_d" x="0" y="0" width="245" height="151" filterUnits="userSpaceOnUse" color-interpolation-filters="sRGB">
<feFlood flood-opacity="0" result="BackgroundImageFix"/>
<feColorMatrix in="SourceAlpha" type="matrix" values="0 0 0 0 0 0 0 0 0 0 0 0 0 0 0 0 0 0 127 0"/>
<feOffset dy="4"/>
<feGaussianBlur stdDeviation="5"/>
<feColorMatrix type="matrix" values="0 0 0 0 0 0 0 0 0 0 0 0 0 0 0 0 0 0 0.28 0"/>
<feBlend mode="normal" in2="BackgroundImageFix" result="effect1_dropShadow"/>
<feBlend mode="normal" in="SourceGraphic" in2="effect1_dropShadow" result="shape"/>
</filter>
<clipPath id="clip0">
<rect x="123" y="45.4795" width="41" height="36.7877" fill="white"/>
</clipPath>
</defs>
</svg>
