<svg width="57" height="45" viewBox="0 0 57 45" fill="none" xmlns="http://www.w3.org/2000/svg">
<path d="M31.4189 3.35262L7.48091 12.1953L3.48331 23.8143L30.9547 37.8522L43.924 8.87566L31.4189 3.35262Z" fill="#FB9531" stroke="#303030" stroke-width="2"/>
<path d="M3.42871 23.835L43.8241 8.91302" stroke="#303030"/>
<path d="M7.68018 12.1221L22.6655 16.3945L31.319 3.38997" stroke="#303030"/>
<path d="M7.58037 12.1588L8.25389 22.1638" stroke="#303030"/>
<path d="M31.319 3.38995L37.9017 10.9893" stroke="#303030"/>
<path d="M8.21639 22.0663L30.8793 37.6575L22.741 16.5895L8.21639 22.0663Z" fill="#FB9531"/>
<path d="M38.1012 10.9155L30.8793 37.6575M30.8793 37.6575L8.21639 22.0663L22.741 16.5895L30.8793 37.6575Z" stroke="#303030"/>
<path d="M51.4804 24.3017L38.0975 18.31L31.6226 21.4133L36.87 38.0759L54.2315 31.5357L51.4804 24.3017Z" fill="#FFAE5F" stroke="#303030" stroke-width="2"/>
<path d="M31.5918 21.3994L54.1754 31.5104" stroke="#303030"/>
<path d="M38.2085 18.3594L42.486 26.0789L51.4241 24.2762" stroke="#303030"/>
<path d="M38.1526 18.3348L34.2426 22.6524" stroke="#303030"/>
<path d="M51.4241 24.2763L50.9108 29.9828" stroke="#303030"/>
<path d="M34.2684 22.5975L36.9207 37.9663L42.4352 26.1879L34.2684 22.5975Z" fill="#FFAE5F"/>
<path d="M51.0225 30.0326L36.9207 37.9663M36.9207 37.9663L34.2684 22.5975L42.4352 26.1879L36.9207 37.9663Z" stroke="#303030"/>
</svg>
