<svg width="199" height="184" viewBox="0 0 199 184" fill="none" xmlns="http://www.w3.org/2000/svg">
<rect width="199" height="184" rx="10" fill="#5C5C5C"/>
<path d="M142 48.8333V44.8889C142 43.8428 141.584 42.8395 140.845 42.0997C140.105 41.36 139.102 40.9444 138.056 40.9444H98.6111V37H86.7778V40.9444H82.8333V48.8333H86.7778V84.3333H82.8333V76.4444H74.9444V84.3333H71V92.2222H74.9444V108H82.8333V92.2222H102.556V108H110.444V103.74V92.2222H114.389V84.3333H110.444V76.4444H102.556V84.3333H98.6111V48.8333H130.167V67.0567C128.313 67.7272 126.972 69.4628 126.972 71.5533C126.972 73.2889 127.918 74.8667 129.378 75.7344V80.3889H131.823C133.164 80.3889 134.229 81.4933 134.229 82.8344C134.229 84.1756 133.164 85.28 131.823 85.28C130.956 85.28 130.167 84.8067 129.733 84.0572C129.023 82.9133 127.563 82.5189 126.419 83.1894C125.236 83.8206 124.842 85.3194 125.512 86.5028C126.814 88.7117 129.22 90.1317 131.823 90.1317C135.807 90.1317 139.081 86.8578 139.081 82.8344C139.081 79.7578 137.109 76.9967 134.229 75.9711V75.7344C135.728 74.8667 136.675 73.2889 136.675 71.5533C136.675 69.7389 135.61 68.2006 134.111 67.3722V48.8333H142ZM94.6667 79.0478L90.7222 82.9922V77.3911L94.6667 73.4467V79.0478ZM94.6667 67.4117L90.7222 71.3561V65.755L94.6667 61.8106V67.4117ZM90.7222 59.5228V53.9217L94.6667 49.9772V55.5783L90.7222 59.5228Z" fill="#B9B9B9"/>
<rect x="20" y="119" width="160" height="27" rx="9" stroke="#B9B9B9" stroke-width="2"/>
<path d="M35.3882 139.266H34.1758V137H27.5425V139.272H26.3237L26.3174 136.003H27.0728C27.4705 135.555 27.7858 134.954 28.0186 134.201C28.2555 133.443 28.4036 132.614 28.4629 131.712L28.666 127.758H34.1948V136.003H35.4009L35.3882 139.266ZM28.4629 136.003H32.9697V128.761H29.8403L29.707 131.478C29.652 132.54 29.5103 133.445 29.2817 134.194C29.0575 134.943 28.7845 135.546 28.4629 136.003ZM36.353 133.502C36.353 132.83 36.4842 132.224 36.7466 131.687C37.0132 131.15 37.3813 130.735 37.8511 130.443C38.325 130.151 38.8646 130.005 39.4697 130.005C40.4049 130.005 41.1603 130.329 41.7358 130.976C42.3156 131.624 42.6055 132.485 42.6055 133.56V133.642C42.6055 134.311 42.4764 134.912 42.2183 135.445C41.9644 135.974 41.5983 136.386 41.1201 136.683C40.6462 136.979 40.1003 137.127 39.4824 137.127C38.5514 137.127 37.7961 136.803 37.2163 136.156C36.6408 135.508 36.353 134.651 36.353 133.585V133.502ZM37.5337 133.642C37.5337 134.404 37.7093 135.015 38.0605 135.477C38.416 135.938 38.89 136.168 39.4824 136.168C40.0791 136.168 40.5531 135.936 40.9043 135.47C41.2555 135 41.4312 134.345 41.4312 133.502C41.4312 132.749 41.2513 132.14 40.8916 131.674C40.5361 131.205 40.0622 130.97 39.4697 130.97C38.89 130.97 38.4224 131.2 38.0669 131.662C37.7114 132.123 37.5337 132.783 37.5337 133.642ZM47.0933 130.525C47.9565 130.525 48.6463 130.815 49.1626 131.395C49.6831 131.971 49.9434 132.73 49.9434 133.674V133.782C49.9434 134.429 49.8185 135.009 49.5688 135.521C49.3192 136.029 48.9595 136.424 48.4897 136.708C48.0243 136.987 47.4868 137.127 46.8774 137.127C45.9549 137.127 45.2122 136.82 44.6494 136.207C44.0866 135.589 43.8052 134.761 43.8052 133.725V133.153C43.8052 131.71 44.0718 130.563 44.605 129.713C45.1424 128.862 45.9338 128.344 46.979 128.158C47.5715 128.052 47.9714 127.923 48.1787 127.771C48.3861 127.618 48.4897 127.409 48.4897 127.142H49.4546C49.4546 127.671 49.334 128.084 49.0928 128.38C48.8558 128.676 48.4749 128.886 47.9502 129.008L47.0742 129.205C46.376 129.37 45.8512 129.649 45.5 130.043C45.153 130.432 44.9266 130.953 44.8208 131.604C45.4429 130.885 46.2004 130.525 47.0933 130.525ZM46.8647 131.49C46.2892 131.49 45.8322 131.685 45.4937 132.074C45.1551 132.459 44.9858 132.995 44.9858 133.68V133.782C44.9858 134.518 45.1551 135.102 45.4937 135.534C45.8364 135.961 46.2977 136.175 46.8774 136.175C47.4614 136.175 47.9227 135.959 48.2612 135.527C48.5998 135.096 48.769 134.465 48.769 133.636C48.769 132.988 48.5977 132.47 48.2549 132.081C47.9163 131.687 47.453 131.49 46.8647 131.49ZM55.5039 137C55.4362 136.865 55.3812 136.623 55.3389 136.276C54.793 136.843 54.1413 137.127 53.3838 137.127C52.7067 137.127 52.1502 136.937 51.7144 136.556C51.2827 136.171 51.0669 135.684 51.0669 135.096C51.0669 134.381 51.3377 133.826 51.8794 133.433C52.4253 133.035 53.1912 132.836 54.1772 132.836H55.3198V132.296C55.3198 131.886 55.1971 131.56 54.9517 131.319C54.7062 131.073 54.3444 130.951 53.8662 130.951C53.4473 130.951 53.096 131.056 52.8125 131.268C52.529 131.48 52.3872 131.736 52.3872 132.036H51.2065C51.2065 131.693 51.3271 131.363 51.5684 131.046C51.8138 130.724 52.1439 130.47 52.5586 130.284C52.9775 130.098 53.4367 130.005 53.936 130.005C54.7274 130.005 55.3473 130.204 55.7959 130.602C56.2445 130.995 56.4772 131.539 56.4941 132.233V135.394C56.4941 136.025 56.5745 136.526 56.7354 136.898V137H55.5039ZM53.5552 136.105C53.9233 136.105 54.2725 136.01 54.6025 135.819C54.9326 135.629 55.1717 135.381 55.3198 135.077V133.667H54.3994C52.9606 133.667 52.2412 134.089 52.2412 134.931C52.2412 135.299 52.3639 135.587 52.6094 135.794C52.8548 136.001 53.1701 136.105 53.5552 136.105ZM58.4429 137V130.132H61.1216C62.0356 130.132 62.736 130.293 63.2227 130.614C63.7135 130.932 63.959 131.399 63.959 132.017C63.959 132.334 63.8638 132.622 63.6733 132.88C63.4829 133.134 63.2015 133.329 62.8291 133.464C63.2438 133.562 63.576 133.752 63.8257 134.036C64.0796 134.319 64.2065 134.658 64.2065 135.051C64.2065 135.682 63.9738 136.164 63.5083 136.499C63.047 136.833 62.3932 137 61.5469 137H58.4429ZM59.6172 133.985V136.054H61.5596C62.0505 136.054 62.4165 135.963 62.6577 135.781C62.9032 135.599 63.0259 135.343 63.0259 135.013C63.0259 134.328 62.5223 133.985 61.5151 133.985H59.6172ZM59.6172 133.045H61.1343C62.2345 133.045 62.7847 132.724 62.7847 132.081C62.7847 131.437 62.2642 131.105 61.2231 131.084H59.6172V133.045ZM70.2051 130.132H71.3794V137H70.2051V131.992L67.0376 137H65.8633V130.132H67.0376V135.146L70.2051 130.132ZM78.3682 131.084H76.064V137H74.8896V131.084H72.6299V130.132H78.3682V131.084ZM80.793 132.5H82.5767C83.3553 132.508 83.971 132.711 84.4238 133.109C84.8766 133.507 85.103 134.046 85.103 134.728C85.103 135.413 84.8703 135.963 84.4048 136.378C83.9393 136.793 83.313 137 82.5259 137H79.6187V130.132H80.793V132.5ZM80.793 133.458V136.042H82.5386C82.9787 136.042 83.3193 135.929 83.5605 135.705C83.8018 135.477 83.9224 135.166 83.9224 134.772C83.9224 134.391 83.8039 134.08 83.5669 133.839C83.3341 133.593 83.0062 133.466 82.583 133.458H80.793ZM89.54 133.693C89.54 132.546 89.7622 131.645 90.2065 130.989C90.6509 130.333 91.2603 130.005 92.0347 130.005C92.3944 130.005 92.7096 130.066 92.9805 130.189V127.25H94.1548V130.227C94.451 130.079 94.798 130.005 95.1958 130.005C95.9744 130.005 96.5859 130.333 97.0303 130.989C97.4746 131.645 97.6968 132.59 97.6968 133.826C97.6968 134.838 97.4746 135.642 97.0303 136.238C96.5902 136.835 95.9829 137.133 95.2085 137.133C94.798 137.133 94.4468 137.066 94.1548 136.93V139.641H92.9805V136.949C92.7012 137.072 92.3817 137.133 92.022 137.133C91.2518 137.133 90.6445 136.835 90.2002 136.238C89.7601 135.642 89.54 134.825 89.54 133.788V133.693ZM96.5225 133.693C96.5225 132.83 96.3743 132.161 96.0781 131.687C95.7819 131.209 95.3735 130.97 94.853 130.97C94.5864 130.97 94.3537 131.012 94.1548 131.097V136.067C94.3452 136.139 94.5822 136.175 94.8657 136.175C95.3905 136.175 95.7967 135.972 96.0845 135.565C96.3765 135.159 96.5225 134.535 96.5225 133.693ZM90.7144 133.826C90.7144 134.596 90.8519 135.18 91.127 135.578C91.402 135.976 91.7977 136.175 92.314 136.175C92.5594 136.175 92.7816 136.137 92.9805 136.061V131.078C92.8027 131.006 92.5848 130.97 92.3267 130.97C91.8104 130.97 91.4126 131.2 91.1333 131.662C90.854 132.123 90.7144 132.844 90.7144 133.826ZM98.9155 133.502C98.9155 132.83 99.0467 132.224 99.3091 131.687C99.5757 131.15 99.9438 130.735 100.414 130.443C100.888 130.151 101.427 130.005 102.032 130.005C102.967 130.005 103.723 130.329 104.298 130.976C104.878 131.624 105.168 132.485 105.168 133.56V133.642C105.168 134.311 105.039 134.912 104.781 135.445C104.527 135.974 104.161 136.386 103.683 136.683C103.209 136.979 102.663 137.127 102.045 137.127C101.114 137.127 100.359 136.803 99.7788 136.156C99.2033 135.508 98.9155 134.651 98.9155 133.585V133.502ZM100.096 133.642C100.096 134.404 100.272 135.015 100.623 135.477C100.979 135.938 101.452 136.168 102.045 136.168C102.642 136.168 103.116 135.936 103.467 135.47C103.818 135 103.994 134.345 103.994 133.502C103.994 132.749 103.814 132.14 103.454 131.674C103.099 131.205 102.625 130.97 102.032 130.97C101.452 130.97 100.985 131.2 100.629 131.662C100.274 132.123 100.096 132.783 100.096 133.642ZM111.604 131.084H109.3V137H108.126V131.084H105.866V130.132H111.604V131.084ZM112.169 133.502C112.169 132.83 112.301 132.224 112.563 131.687C112.83 131.15 113.198 130.735 113.667 130.443C114.141 130.151 114.681 130.005 115.286 130.005C116.221 130.005 116.977 130.329 117.552 130.976C118.132 131.624 118.422 132.485 118.422 133.56V133.642C118.422 134.311 118.293 134.912 118.035 135.445C117.781 135.974 117.415 136.386 116.937 136.683C116.463 136.979 115.917 137.127 115.299 137.127C114.368 137.127 113.612 136.803 113.033 136.156C112.457 135.508 112.169 134.651 112.169 133.585V133.502ZM113.35 133.642C113.35 134.404 113.526 135.015 113.877 135.477C114.232 135.938 114.706 136.168 115.299 136.168C115.896 136.168 116.369 135.936 116.721 135.47C117.072 135 117.248 134.345 117.248 133.502C117.248 132.749 117.068 132.14 116.708 131.674C116.353 131.205 115.879 130.97 115.286 130.97C114.706 130.97 114.239 131.2 113.883 131.662C113.528 132.123 113.35 132.783 113.35 133.642ZM124.332 131.103H121.164V137H119.983V130.132H124.332V131.103ZM131.155 133.642C131.155 134.687 130.916 135.529 130.438 136.168C129.96 136.807 129.312 137.127 128.496 137.127C127.662 137.127 127.006 136.862 126.528 136.333V139.641H125.354V130.132H126.426L126.483 130.894C126.962 130.301 127.626 130.005 128.477 130.005C129.302 130.005 129.953 130.316 130.432 130.938C130.914 131.56 131.155 132.425 131.155 133.534V133.642ZM129.981 133.509C129.981 132.734 129.816 132.123 129.486 131.674C129.156 131.226 128.703 131.001 128.127 131.001C127.417 131.001 126.883 131.317 126.528 131.947V135.229C126.879 135.855 127.417 136.168 128.14 136.168C128.703 136.168 129.149 135.946 129.479 135.502C129.814 135.053 129.981 134.389 129.981 133.509ZM136.894 137C136.826 136.865 136.771 136.623 136.729 136.276C136.183 136.843 135.531 137.127 134.773 137.127C134.096 137.127 133.54 136.937 133.104 136.556C132.672 136.171 132.457 135.684 132.457 135.096C132.457 134.381 132.727 133.826 133.269 133.433C133.815 133.035 134.581 132.836 135.567 132.836H136.709V132.296C136.709 131.886 136.587 131.56 136.341 131.319C136.096 131.073 135.734 130.951 135.256 130.951C134.837 130.951 134.486 131.056 134.202 131.268C133.919 131.48 133.777 131.736 133.777 132.036H132.596C132.596 131.693 132.717 131.363 132.958 131.046C133.203 130.724 133.534 130.47 133.948 130.284C134.367 130.098 134.826 130.005 135.326 130.005C136.117 130.005 136.737 130.204 137.186 130.602C137.634 130.995 137.867 131.539 137.884 132.233V135.394C137.884 136.025 137.964 136.526 138.125 136.898V137H136.894ZM134.945 136.105C135.313 136.105 135.662 136.01 135.992 135.819C136.322 135.629 136.561 135.381 136.709 135.077V133.667H135.789C134.35 133.667 133.631 134.089 133.631 134.931C133.631 135.299 133.754 135.587 133.999 135.794C134.244 136.001 134.56 136.105 134.945 136.105ZM139.471 133.693C139.471 132.546 139.693 131.645 140.137 130.989C140.582 130.333 141.191 130.005 141.965 130.005C142.325 130.005 142.64 130.066 142.911 130.189V127.25H144.085V130.227C144.382 130.079 144.729 130.005 145.126 130.005C145.905 130.005 146.517 130.333 146.961 130.989C147.405 131.645 147.627 132.59 147.627 133.826C147.627 134.838 147.405 135.642 146.961 136.238C146.521 136.835 145.914 137.133 145.139 137.133C144.729 137.133 144.377 137.066 144.085 136.93V139.641H142.911V136.949C142.632 137.072 142.312 137.133 141.953 137.133C141.182 137.133 140.575 136.835 140.131 136.238C139.691 135.642 139.471 134.825 139.471 133.788V133.693ZM146.453 133.693C146.453 132.83 146.305 132.161 146.009 131.687C145.713 131.209 145.304 130.97 144.784 130.97C144.517 130.97 144.284 131.012 144.085 131.097V136.067C144.276 136.139 144.513 136.175 144.796 136.175C145.321 136.175 145.727 135.972 146.015 135.565C146.307 135.159 146.453 134.535 146.453 133.693ZM140.645 133.826C140.645 134.596 140.783 135.18 141.058 135.578C141.333 135.976 141.728 136.175 142.245 136.175C142.49 136.175 142.712 136.137 142.911 136.061V131.078C142.733 131.006 142.515 130.97 142.257 130.97C141.741 130.97 141.343 131.2 141.064 131.662C140.785 132.123 140.645 132.844 140.645 133.826ZM153.601 130.132H154.775V137H153.601V131.992L150.433 137H149.259V130.132H150.433V135.146L153.601 130.132ZM157.942 133.045H159.593C159.682 132.131 160.005 131.397 160.564 130.843C161.127 130.284 161.836 130.005 162.69 130.005C163.588 130.005 164.322 130.307 164.893 130.913C165.464 131.518 165.773 132.305 165.82 133.274L165.826 133.642C165.826 134.311 165.695 134.914 165.433 135.451C165.17 135.989 164.802 136.403 164.328 136.695C163.854 136.983 163.312 137.127 162.703 137.127C161.819 137.127 161.095 136.839 160.532 136.264C159.969 135.684 159.654 134.933 159.586 134.01H157.942V137H156.768V130.132H157.942V133.045ZM160.748 133.642C160.748 134.404 160.924 135.015 161.275 135.477C161.63 135.938 162.106 136.168 162.703 136.168C163.3 136.168 163.772 135.934 164.119 135.464C164.47 134.994 164.646 134.34 164.646 133.502C164.646 132.753 164.468 132.144 164.112 131.674C163.757 131.205 163.283 130.97 162.69 130.97C162.106 130.97 161.637 131.2 161.281 131.662C160.926 132.123 160.748 132.783 160.748 133.642Z" fill="#B9B9B9"/>
</svg>
