<svg width="36" height="39" viewBox="0 0 36 39" fill="none" xmlns="http://www.w3.org/2000/svg">
<path d="M18 18.3099C22.9706 18.3099 27 14.2111 27 9.15494C27 4.0988 22.9706 0 18 0C13.0294 0 9 4.0988 9 9.15494C9 14.2111 13.0294 18.3099 18 18.3099Z" fill="#FB9531"/>
<path d="M36 38.9085V29.7536C36 28.3803 35.325 27.0071 34.2 26.0916C31.725 24.0317 28.575 22.6585 25.425 21.743C23.175 21.0564 20.7 20.5986 18 20.5986C15.525 20.5986 13.05 21.0564 10.575 21.743C7.425 22.6585 4.275 24.2606 1.8 26.0916C0.675 27.0071 0 28.3803 0 29.7536V38.9085H36Z" fill="#FB9531"/>
</svg>
